:SAMPLES-PER-SECOND 30
:FULLY-SPECIFIED
:DEGREES
703
root  -18.5647 39.3869 -0.149596 -94.3686 89.7873 -90.8259
RightUpLeg  7.33565 -7.91003 0.203199
RightLeg  13.8231 8.659 2.16208
RightFoot  -14.6512 -0.261105 -5.60005
RightToes  -2.9104e-010 0 -3.6325e-017
Spine  4.98775 1.33898 10.2051
Spine1  6.93999 3.09807 -5.26414
HEad  -22.2498 -0.116602 -7.88987
LeftShoulder1  -0.592649 5.06126 -31.8974
LeftArm  -0.450844 1.23277 -45.2037
LeftForeArm  24.6911 -14.241 -6.69131
LeftHand  0.00809904 6.7429 3.36796
RightShoulder  -0.694598 -5.50176 28.0899
RightArm  17.5491 13.7952 46.5152
RightForeArm  7.42056 20.0336 4.61031
RightHand  -0.147857 5.18364 -1.9309
LeftUpLeg  -16.3193 2.77657 2.19198
LeftLeg  6.92632 -2.30173 -0.0491555
LeftFoot  -1.25351 0.353279 -3.90851
LeftToes  -3.37426e-010 -1.91496e-010 5.23909e-011
704
root  -17.2829 39.2809 -0.232081 -55.4276 89.9182 -51.9348
RightUpLeg  10.2422 -8.03144 -0.505408
RightLeg  12.2915 9.1286 1.98836
RightFoot  -15.7651 -0.305702 -5.17398
RightToes  -2.9104e-010 0 -3.6325e-017
Spine  4.99083 1.36556 9.26976
Spine1  6.69507 3.05922 -5.55638
HEad  -22.2654 0.350489 -7.29769
LeftShoulder1  -0.519006 4.87895 -31.6005
LeftArm  -6.8367 2.81813 -44.1685
LeftForeArm  30.7375 -7.69079 -7.48515
LeftHand  0.0171433 7.85906 2.84978
RightShoulder  -0.676168 -5.4507 28.0442
RightArm  17.4489 14.6307 46.6267
RightForeArm  6.90001 21.671 4.51618
RightHand  -0.285066 5.11204 -3.46583
LeftUpLeg  -15.3259 3.22212 1.73373
LeftLeg  -2.44446 -0.584769 -0.140477
LeftFoot  -2.27579 0.42364 -5.23989
LeftToes  -3.37426e-010 -1.91496e-010 5.23909e-011
705
root  -15.9576 39.0415 -0.381032 128.621 89.843 132.221
RightUpLeg  12.8883 -8.2068 -1.30623
RightLeg  11.9251 9.36861 1.90922
RightFoot  -17.5601 -0.349416 -4.24672
RightToes  -2.9104e-010 0 -3.6325e-017
Spine  4.86578 1.17527 8.68883
Spine1  7.1209 2.92657 -6.11805
HEad  -23.2759 1.12939 -6.50361
LeftShoulder1  -0.493527 4.8117 -31.5962
LeftArm  -7.65819 4.54525 -43.0761
LeftForeArm  33.3303 -3.52268 -6.85021
LeftHand  -0.0273133 9.03585 0.572459
RightShoulder  -0.728902 -5.60719 27.9998
RightArm  16.2839 15.1414 47.0634
RightForeArm  8.48974 22.9596 4.50253
RightHand  -0.22175 6.28607 -2.53896
LeftUpLeg  -15.5926 3.34121 1.19108
LeftLeg  -4.69254 4.43948 -0.95885
LeftFoot  -3.37546 0.516944 -7.01209
LeftToes  -3.37426e-010 -1.91496e-010 5.23909e-011
706
root  -14.5867 38.7662 -0.567139 150.289 88.9713 154.228
RightUpLeg  15.4519 -8.49567 -2.49741
RightLeg  12.494 9.29865 1.8529
RightFoot  -19.3149 -0.337168 -2.96931
RightToes  -2.9104e-010 0 -3.6325e-017
Spine  5.04297 0.952567 7.62203
Spine1  7.55507 2.87636 -6.32839
HEad  -23.8865 0.661112 -5.3138
LeftShoulder1  -0.437583 4.65808 -31.7697
LeftArm  -7.74977 6.79117 -41.8197
LeftForeArm  35.6444 -1.47267 -6.60675
LeftHand  -0.077309 9.52078 -0.612257
RightShoulder  -0.724264 -5.59494 27.9786
RightArm  14.6926 14.5378 47.1594
RightForeArm  9.50429 23.7798 4.58797
RightHand  -0.216762 6.88763 -2.40165
LeftUpLeg  -16.5715 2.7059 -0.164195
LeftLeg  -0.744496 8.55601 -0.906236
LeftFoot  -0.80815 0.227067 -2.8518
LeftToes  -3.37426e-010 -1.91496e-010 5.23909e-011
707
root  -13.1234 38.5459 -0.774228 120.315 88.2208 125.088
RightUpLeg  18.5027 -8.07341 -4.19536
RightLeg  13.2605 9.45823 1.74613
RightFoot  -20.4822 -0.193338 -0.69343
RightToes  -2.9104e-010 0 -3.6325e-017
Spine  5.49232 1.22789 6.42611
Spine1  8.21301 3.42887 -7.08682
HEad  -24.5632 0.530976 -4.24172
LeftShoulder1  -0.5008 4.82088 -31.8791
LeftArm  -7.32375 9.57376 -40.3615
LeftForeArm  38.9043 -2.08071 -6.83636
LeftHand  -0.19432 9.73707 -3.61534
RightShoulder  -0.761507 -5.67042 28.5036
RightArm  13.4578 13.2128 46.855
RightForeArm  9.97025 24.0284 4.6137
RightHand  -0.200966 5.85796 -2.39585
LeftUpLeg  -17.3144 2.24376 -1.88807
LeftLeg  5.40015 8.97595 0.0712873
LeftFoot  4.61433 -0.516531 3.68926
LeftToes  -3.37426e-010 -1.91496e-010 5.23909e-011
708
root  -11.578 38.3178 -1.00226 92.6588 87.2229 97.981
RightUpLeg  20.0366 -5.7647 -5.76587
RightLeg  16.3358 8.75059 2.06294
RightFoot  -21.2812 0.0679359 2.39146
RightToes  -2.9104e-010 0 -3.6325e-017
Spine  5.38396 2.06479 4.97676
Spine1  8.65088 4.36195 -7.55129
HEad  -24.9603 -0.271878 -3.15189
LeftShoulder1  -0.63046 5.14679 -32.2127
LeftArm  -6.80375 12.6109 -38.6604
LeftForeArm  40.0593 -3.75223 -7.14992
LeftHand  -0.213335 9.71614 -4.11212
RightShoulder  -0.822494 -5.80991 29.054
RightArm  13.0052 11.2552 46.7352
RightForeArm  9.93198 23.1953 4.46067
RightHand  -0.167633 6.04195 -2.02551
LeftUpLeg  -17.3196 3.66449 -3.59961
LeftLeg  10.1896 6.93443 0.575224
LeftFoot  8.62653 -0.698775 3.68904
LeftToes  -3.37426e-010 -1.91496e-010 5.23909e-011
709
root  -10.0451 38.1507 -1.25188 88.1247 85.4518 93.8419
RightUpLeg  20.0356 -2.87138 -7.63791
RightLeg  21.8883 7.27306 3.07485
RightFoot  -20.6722 0.437612 7.16763
RightToes  -2.9104e-010 0 -3.6325e-017
Spine  5.29771 2.63361 3.36932
Spine1  8.71298 5.03303 -8.44274
HEad  -24.718 -1.11747 -2.57912
LeftShoulder1  -0.725906 5.36725 -32.8015
LeftArm  -6.20723 15.4021 -36.4862
LeftForeArm  37.9126 -5.02182 -7.34763
LeftHand  -0.152923 8.4954 -3.74295
RightShoulder  -0.868716 -5.91775 29.388
RightArm  12.7353 9.16551 47.667
RightForeArm  9.55415 19.8953 4.36619
RightHand  -0.252594 6.5413 -2.81543
LeftUpLeg  -17.5147 7.21647 -6.49354
LeftLeg  15.9938 3.8871 1.16621
LeftFoot  6.00974 -0.813764 5.10469
LeftToes  -3.37426e-010 -1.91496e-010 5.23909e-011
710
root  -8.65126 38.1123 -1.55486 88.1976 84.256 94.0453
RightUpLeg  17.742 -2.38871 -10.0195
RightLeg  30.1533 7.86123 4.68745
RightFoot  -16.4345 0.447331 13.3184
RightToes  -2.9104e-010 0 -3.6325e-017
Spine  5.57477 2.88604 3.13873
Spine1  8.33667 5.53722 -10.515
HEad  -23.5903 -2.04764 -2.95336
LeftShoulder1  -0.737115 5.38904 -32.9372
LeftArm  -6.39796 18.0142 -35.4003
LeftForeArm  33.681 -5.64911 -7.07049
LeftHand  -0.150711 9.07672 -2.95591
RightShoulder  -0.935145 -6.09821 29.4723
RightArm  11.5951 7.65264 49.176
RightForeArm  12.2965 14.4338 5.00022
RightHand  -0.230347 5.52336 -2.70874
LeftUpLeg  -16.8164 8.30146 -8.34952
LeftLeg  19.3549 3.02439 1.52972
LeftFoot  3.10417 -0.846675 6.51836
LeftToes  -3.37426e-010 -1.91496e-010 5.23909e-011
711
root  -7.38101 38.1672 -1.85019 83.7852 83.2372 89.7156
RightUpLeg  12.7396 -1.04779 -11.986
RightLeg  41.0408 7.44684 6.62414
RightFoot  -7.27482 -0.590793 16.8312
RightToes  -2.9104e-010 0 -3.6325e-017
Spine  6.19727 3.17213 2.56839
Spine1  7.72485 5.80745 -11.6478
HEad  -22.786 -1.94174 -4.38959
LeftShoulder1  -0.696782 5.29996 -32.6401
LeftArm  -7.85675 20.0631 -36.0837
LeftForeArm  30.1068 -5.96902 -6.17557
LeftHand  -0.206966 10.1316 -3.44023
RightShoulder  -0.920189 -6.06655 29.3304
RightArm  9.9638 6.82739 50.513
RightForeArm  16.9416 9.00785 5.76261
RightHand  -0.0195858 3.93495 -0.558224
LeftUpLeg  -15.2441 8.28355 -9.56905
LeftLeg  20.7772 3.72105 1.83202
LeftFoot  0.585915 -0.759195 7.2107
LeftToes  -3.37426e-010 -1.91496e-010 5.23909e-011
712
root  -6.17399 38.2286 -2.07648 78.6538 81.9989 84.8721
RightUpLeg  6.40752 1.24249 -13.3748
RightLeg  52.099 6.29966 8.25164
RightFoot  4.45064 -1.85598 13.5793
RightToes  -2.9104e-010 0 -3.6325e-017
Spine  6.97797 3.31765 1.06444
Spine1  7.44361 5.75165 -11.8063
HEad  -22.6815 -1.64883 -5.64827
LeftShoulder1  -0.676689 5.26902 -32.1737
LeftArm  -8.99988 20.7663 -37.6453
LeftForeArm  28.7106 -5.97698 -5.65483
LeftHand  -0.0849283 8.84061 -1.23748
RightShoulder  -0.93281 -6.06907 29.7815
RightArm  10.8489 7.22025 51.4886
RightForeArm  20.3574 4.5931 6.32759
RightHand  0.0131759 2.48034 0.0422121
LeftUpLeg  -13.099 8.69233 -10.7609
LeftLeg  21.3421 4.50101 2.04357
LeftFoot  -1.74724 -0.59144 7.15367
LeftToes  -3.37426e-010 -1.91496e-010 5.23909e-011
713
root  -5.05457 38.2609 -2.24604 75.0282 81.3533 81.6487
RightUpLeg  0.992362 2.85849 -13.9503
RightLeg  59.9691 4.94654 8.69404
RightFoot  8.03652 -1.79506 10.7352
RightToes  -2.9104e-010 0 -3.6325e-017
Spine  7.25151 3.39016 -0.327411
Spine1  8.42694 5.48656 -11.3741
HEad  -23.5148 -0.984952 -6.64318
LeftShoulder1  -0.605039 5.08713 -32.0605
LeftArm  -9.14276 19.4097 -39.222
LeftForeArm  29.0767 -5.31998 -5.69747
LeftHand  -0.067578 8.84348 -0.61843
RightShoulder  -0.952993 -6.09295 30.2283
RightArm  11.5574 7.08207 51.97
RightForeArm  25.7114 3.58911 6.55498
RightHand  0.114492 1.74113 1.68466
LeftUpLeg  -11.0842 8.50744 -11.2005
LeftLeg  22.1422 5.41786 2.21914
LeftFoot  -3.93749 -0.422429 6.89446
LeftToes  -3.37426e-010 -1.91496e-010 5.23909e-011
714
root  -3.90692 38.4065 -2.4175 76.8887 81.8772 83.8686
RightUpLeg  -3.50654 3.22775 -13.4402
RightLeg  64.5584 3.53959 7.52612
RightFoot  4.41513 -1.39673 10.2934
RightToes  -2.9104e-010 0 -3.6325e-017
Spine  7.38982 2.86751 -1.06979
Spine1  9.09883 4.49061 -9.93722
HEad  -24.4303 -0.260044 -7.60226
LeftShoulder1  -0.638149 5.15497 -32.4966
LeftArm  -8.03442 16.6752 -40.0199
LeftForeArm  32.0361 -4.53043 -6.39247
LeftHand  -0.077531 8.32728 -1.22064
RightShoulder  -0.898095 -5.95042 30.1032
RightArm  11.4196 5.0851 52.3138
RightForeArm  28.1623 5.37241 6.49475
RightHand  0.0539106 2.15653 0.674748
LeftUpLeg  -8.53794 8.05126 -10.6944
LeftLeg  21.9191 5.74488 2.07297
LeftFoot  -5.74473 -0.299805 6.83153
LeftToes  -3.37426e-010 -1.91496e-010 5.23909e-011
715
root  -2.77539 38.554 -2.54124 83.3062 82.799 90.4435
RightUpLeg  -7.75167 2.80149 -12.4174
RightLeg  66.1065 2.68347 6.02219
RightFoot  3.89743 -1.1187 8.54875
RightToes  -2.9104e-010 0 -3.6325e-017
Spine  7.63758 2.19097 -1.83222
Spine1  9.064 3.21176 -8.10363
HEad  -24.3775 0.658467 -8.05097
LeftShoulder1  -0.612416 5.09013 -32.4516
LeftArm  -7.09318 13.6438 -41.1859
LeftForeArm  35.5592 -4.20432 -7.04394
LeftHand  -0.113338 8.25459 -2.53269
RightShoulder  -0.973799 -6.11907 30.662
RightArm  12.3729 2.9902 51.3472
RightForeArm  25.0832 7.91937 6.697
RightHand  -0.0192116 2.92542 -0.521264
LeftUpLeg  -6.18898 6.90042 -9.89287
LeftLeg  21.6073 5.77323 1.94614
LeftFoot  -7.32203 -0.191935 6.72442
LeftToes  -3.37426e-010 -1.91496e-010 5.23909e-011
